<?xml version="1.0" encoding="UTF-8"?>
<!DOCTYPE svg PUBLIC "-//W3C//DTD SVG 1.1//EN" "http://www.w3.org/Graphics/SVG/1.1/DTD/svg11.dtd">
<!-- Creator: CorelDRAW X8 -->
<svg xmlns="http://www.w3.org/2000/svg" xml:space="preserve" version="1.1" style="shape-rendering:geometricPrecision; text-rendering:geometricPrecision; image-rendering:optimizeQuality; fill-rule:evenodd; clip-rule:evenodd"
 xmlns:xlink="http://www.w3.org/1999/xlink">
 <defs>
  <style type="text/css">
   <![CDATA[
    .fil0 {fill:#336699}
    .fil1 {fill:black;fill-rule:nonzero}
    .fil2 {fill:#336699;fill-rule:nonzero}
    .fil3 {fill:white;fill-rule:nonzero}
   ]]>
  </style>
 </defs>
 <g id="Layer_x0020_1">
  <metadata id="CorelCorpID_0Corel-Layer"/>
  <g id="_2413257795440">
   <path class="fil0" d="M7038 9799l0 5486c-1076,-89 -2037,-822 -2713,-1943l-445 1063c-251,-233 -483,-507 -692,-816l-342 816c-264,-246 -507,-537 -725,-866l-362 866c-182,-169 -354,-360 -515,-570l0 -3539c118,-141 242,-272 371,-392l363 866c218,-329 461,-620 725,-866l342 816c209,-308 441,-582 691,-816l446 1063c277,-461 603,-856 966,-1168l1890 0zm0 5779l0 23 -5794 0 0 -1384c199,241 418,457 654,641l356 -711c213,270 452,509 711,711l335 -670c204,253 432,479 677,670l437 -873c655,911 1583,1509 2624,1593z"/>
   <path class="fil1" d="M8090 10184l0 1144 322 0c156,0 290,-56 402,-167 112,-112 168,-247 168,-407 0,-157 -56,-292 -168,-403 -112,-111 -246,-167 -402,-167l-322 0zm322 1498l-322 0 0 872 -352 0 0 -2724 773 0c218,29 403,120 555,271 180,181 270,399 270,653 0,257 -90,476 -270,658 -125,125 -221,195 -287,211l604 931 -427 0 -544 -872z"/>
   <polygon id="1" class="fil1" points="11199,9830 11199,10182 10084,10182 10084,11015 11199,11015 11199,11367 10084,11367 10084,12200 11199,12200 11199,12554 9732,12554 9732,9830 "/>
   <path id="2" class="fil1" d="M12360 11156c-193,-65 -349,-156 -469,-276 -120,-120 -180,-269 -180,-445 0,-174 63,-323 186,-448 125,-125 276,-187 453,-187 174,0 324,61 449,185 71,68 129,177 177,325l-320 126c-39,-104 -73,-172 -105,-204 -56,-55 -123,-82 -201,-82 -79,0 -147,28 -203,82 -55,56 -83,123 -83,203 0,79 28,146 83,202 62,62 149,117 259,168 213,70 395,179 543,328 167,164 250,364 250,599 0,235 -83,435 -249,602 -166,166 -366,249 -600,249 -235,0 -436,-84 -601,-250 -133,-133 -217,-316 -252,-550l342 -124c22,201 74,343 158,427 98,97 215,146 353,146 137,0 255,-49 352,-146 98,-98 147,-216 147,-354 0,-137 -49,-255 -147,-353 -93,-93 -207,-167 -342,-223z"/>
   <polygon id="3" class="fil1" points="15009,9830 15009,10182 13894,10182 13894,11015 15009,11015 15009,11367 13894,11367 13894,12200 15009,12200 15009,12554 13542,12554 13542,9830 "/>
   <path id="4" class="fil1" d="M16627 11238l-233 -638 -232 638 465 0zm-138 -1408l991 2724 -375 0 -350 -963 -722 0 -349 963 -376 0 990 -2724 191 0z"/>
   <path id="5" class="fil1" d="M18173 10184l0 1144 322 0c156,0 290,-56 402,-167 112,-112 168,-247 168,-407 0,-157 -56,-292 -168,-403 -112,-111 -246,-167 -402,-167l-322 0zm322 1498l-322 0 0 872 -353 0 0 -2724 773 0c219,29 404,120 555,271 180,181 271,399 271,653 0,257 -91,476 -271,658 -125,125 -220,195 -286,211l604 931 -427 0 -544 -872z"/>
   <path id="6" class="fil1" d="M21921 11906l265 236c-323,294 -664,441 -1023,441 -385,0 -714,-136 -985,-407 -271,-271 -407,-599 -407,-984 0,-384 136,-711 407,-984 271,-273 600,-408 985,-408 359,0 700,147 1023,441l-265 240c-242,-216 -495,-324 -758,-324 -285,0 -529,101 -732,303 -202,202 -303,446 -303,732 0,287 101,532 303,734 203,202 447,303 732,303 263,0 516,-108 758,-323z"/>
   <polygon id="7" class="fil1" points="22962,11427 22962,12554 22610,12554 22610,9830 22962,9830 22962,11075 23803,11075 23803,9830 24156,9830 24156,12554 23803,12554 23803,11427 "/>
   <path class="fil1" d="M8034 14842l0 734 -296 0 0 -2293 650 0c184,25 340,101 467,228 152,153 228,336 228,550 0,216 -76,400 -228,553 -152,152 -335,228 -550,228l-271 0zm0 -1261l0 963 271 0c132,0 245,-47 339,-141 94,-94 141,-208 141,-342 0,-132 -47,-246 -141,-339 -94,-94 -207,-141 -339,-141l-271 0z"/>
   <path id="1" class="fil1" d="M12382 13581l0 963 271 0c131,0 244,-47 338,-141 95,-94 142,-208 142,-342 0,-132 -47,-246 -142,-339 -94,-94 -207,-141 -338,-141l-271 0zm271 1261l-271 0 0 734 -297 0 0 -2293 651 0c184,25 340,101 467,228 152,153 228,336 228,550 0,216 -76,401 -228,553 -105,106 -185,165 -241,178l509 784 -360 0 -458 -734z"/>
   <polygon id="2" class="fil1" points="14475,13580 14475,15576 14176,15576 14176,13580 13642,13580 13642,13283 15009,13283 15009,13580 "/>
   <path id="3" class="fil1" d="M16158 14468l-196 -537 -195 537 391 0zm-116 -1185l834 2293 -315 0 -295 -811 -608 0 -294 811 -316 0 834 -2293 160 0z"/>
   <polygon id="4" class="fil1" points="17163,15576 17163,13283 17460,13283 17460,15278 18279,15278 18279,15576 "/>
   <path id="5" class="fil2" d="M10516 13253c324,0 600,114 830,344 229,229 344,506 344,829 0,324 -115,601 -344,831 -230,229 -506,344 -830,344 -324,0 -601,-115 -830,-344 -229,-230 -344,-507 -344,-831 0,-323 115,-600 344,-829 229,-230 506,-344 830,-344zm0 299c-241,0 -448,86 -618,256 -171,171 -256,377 -256,618 0,243 85,449 256,620 172,171 377,256 618,256 242,0 448,-85 618,-256 171,-171 256,-377 256,-620 0,-241 -85,-447 -256,-618 -170,-170 -376,-256 -618,-256z"/>
   <g>
    <rect class="fil0" x="18915" y="13454" width="5241" height="2146"/>
    <polygon class="fil3" points="19758,13809 19927,13809 20520,14835 20520,13809 20707,13809 20707,15246 20544,15246 19943,14208 19943,15246 19758,15246 "/>
    <polygon id="1" class="fil3" points="21180,13809 21180,15246 20995,15246 20995,13809 "/>
    <polygon id="2" class="fil3" points="21901,13995 21901,15246 21714,15246 21714,13995 21379,13995 21379,13809 22236,13809 22236,13995 "/>
    <path id="3" class="fil3" d="M22602 13999l0 1059c147,0 269,-48 363,-143 107,-107 160,-236 160,-388 0,-150 -53,-279 -160,-386 -94,-95 -216,-142 -363,-142zm-50 -190c234,1 416,67 546,198 144,145 215,318 215,520 0,203 -71,377 -215,521 -130,131 -312,197 -546,198l-136 0 0 -1437 136 0z"/>
   </g>
  </g>
 </g>
</svg>
